<?xml version="1.0" standalone="no"?>
<!DOCTYPE svg PUBLIC "-//W3C//DTD SVG 20010904//EN"
 "http://www.w3.org/TR/2001/REC-SVG-20010904/DTD/svg10.dtd">
<svg version="1.0" xmlns="http://www.w3.org/2000/svg"
 width="500.000000pt" height="500.000000pt" viewBox="0 0 500.000000 500.000000"
 preserveAspectRatio="xMidYMid meet">

<g transform="translate(0.000000,500.000000) scale(0.100000,-0.100000)"
fill="#000000" stroke="none">
<path d="M2497 3636 c-56 -21 -113 -63 -168 -125 -27 -30 -48 -56 -46 -57 1
-2 20 1 42 6 58 14 116 12 203 -6 153 -30 268 -108 315 -212 21 -47 26 -116
16 -232 -3 -39 1 -53 34 -101 20 -31 37 -64 37 -73 0 -9 -13 -25 -30 -34 -25
-14 -30 -24 -32 -57 -1 -22 -2 -48 -2 -58 -1 -11 -9 -24 -17 -30 -9 -7 -19
-34 -23 -60 -6 -42 -12 -50 -41 -64 -29 -14 -46 -15 -102 -6 -78 11 -119 3
-161 -32 -34 -28 -70 -105 -78 -167 -6 -42 -5 -44 30 -61 49 -23 140 -22 191
2 54 26 547 512 573 566 31 63 36 116 17 182 -16 56 -27 68 -273 316 -142 142
-275 269 -297 282 -52 31 -137 40 -188 21z"/>
<path d="M2045 3546 c-16 -8 -76 -61 -132 -118 -94 -96 -103 -108 -103 -143 0
-35 9 -47 108 -147 l107 -109 8 83 c10 107 46 186 117 256 28 28 61 54 72 58
18 5 16 11 -28 56 -45 46 -92 79 -111 78 -4 -1 -21 -7 -38 -14z"/>
<path d="M2299 3281 c-27 -26 -49 -55 -49 -63 0 -20 90 -108 110 -108 9 0 37
22 64 49 36 37 47 54 42 69 -8 23 -90 102 -107 102 -7 0 -34 -22 -60 -49z"/>
<path d="M1784 3019 c-34 -33 -54 -60 -54 -74 0 -23 98 -125 120 -125 22 0
120 102 120 125 0 23 -98 125 -120 125 -6 0 -36 -23 -66 -51z"/>
<path d="M2088 2922 c-115 -115 -118 -119 -118 -162 0 -43 3 -47 118 -162 110
-110 120 -118 157 -118 37 0 47 8 162 123 155 155 155 154 47 270 -139 149
-161 167 -207 167 -39 0 -47 -6 -159 -118z"/>
<path d="M3278 1988 c-14 -12 -108 -228 -108 -249 0 -5 11 -9 23 -9 16 0 28 9
35 25 9 19 19 25 45 25 40 0 46 5 40 31 -4 12 -14 19 -30 19 -26 0 -26 7 2 73
15 36 14 37 65 -90 28 -72 36 -83 56 -83 13 0 24 2 24 5 0 16 -95 239 -107
251 -18 17 -25 18 -45 2z"/>
<path d="M1460 1970 c-17 -17 -20 -33 -20 -101 0 -77 10 -115 34 -131 18 -13
161 -9 174 4 7 7 12 40 12 80 l0 68 -65 0 c-63 0 -65 -1 -65 -25 0 -23 4 -25
45 -25 43 0 45 -1 45 -30 l0 -31 -62 3 -63 3 -3 74 c-2 53 1 77 10 82 7 5 46
9 86 9 65 0 72 2 72 20 0 19 -7 20 -90 20 -77 0 -93 -3 -110 -20z"/>
<path d="M1730 1970 c0 -19 7 -20 100 -20 93 0 100 1 100 20 0 19 -7 20 -100
20 -93 0 -100 -1 -100 -20z"/>
<path d="M2007 1983 c-4 -3 -7 -62 -7 -130 l0 -123 25 0 c24 0 24 1 27 98 l3
97 44 -80 c54 -99 68 -115 97 -115 36 0 44 29 44 149 l0 111 -25 0 -25 0 0
-102 0 -103 -57 103 c-54 95 -60 102 -89 102 -17 0 -34 -3 -37 -7z"/>
<path d="M2302 1863 c3 -124 4 -128 26 -131 22 -3 22 -3 22 127 l0 131 -25 0
-26 0 3 -127z"/>
<path d="M2420 1890 c0 -96 9 -135 34 -152 6 -4 41 -8 77 -8 104 0 113 11 117
149 l4 111 -26 0 c-25 0 -25 0 -28 -102 l-3 -103 -62 -3 -62 -3 -3 103 c-3 98
-4 103 -25 106 -23 3 -23 1 -23 -98z"/>
<path d="M2732 1978 c-16 -16 -16 -110 0 -126 7 -7 39 -12 75 -12 l63 0 0 -30
0 -30 -75 0 c-73 0 -75 -1 -75 -25 0 -25 1 -25 83 -25 99 0 117 12 117 78 0
62 -24 82 -101 82 -60 0 -60 0 -57 28 3 26 5 27 76 30 64 3 72 5 72 22 0 18
-7 20 -83 20 -51 0 -88 -5 -95 -12z"/>
<path d="M3500 1860 c0 -131 0 -131 23 -128 21 3 22 6 22 128 0 122 -1 125
-22 128 -23 3 -23 3 -23 -128z"/>
<path d="M1742 1878 c-7 -7 -12 -32 -12 -55 0 -33 6 -50 25 -68 21 -22 33 -25
100 -25 l75 0 0 30 0 29 -72 3 c-67 3 -73 5 -76 26 -3 21 0 22 72 22 74 0 76
1 76 25 0 25 -1 25 -88 25 -55 0 -92 -4 -100 -12z"/>
</g>
</svg>
